<?xml version="1.0" encoding="UTF-8" standalone="no"?>
<!-- Created with Inkscape (http://www.inkscape.org/) -->

<svg
   xmlns:dc="http://purl.org/dc/elements/1.1/"
   xmlns:cc="http://creativecommons.org/ns#"
   xmlns:rdf="http://www.w3.org/1999/02/22-rdf-syntax-ns#"
   xmlns:svg="http://www.w3.org/2000/svg"
   xmlns="http://www.w3.org/2000/svg"
   xmlns:sodipodi="http://sodipodi.sourceforge.net/DTD/sodipodi-0.dtd"
   xmlns:inkscape="http://www.inkscape.org/namespaces/inkscape"
   width="15.056963mm"
   height="7.4052324mm"
   viewBox="0 0 15.056963 7.4052324"
   version="1.1"
   id="svg8"
   inkscape:version="0.92.5 (2060ec1f9f, 2020-04-08)"
   sodipodi:docname="om.svg">
  <defs
     id="defs2" />
  <sodipodi:namedview
     id="base"
     pagecolor="#ffffff"
     bordercolor="#666666"
     borderopacity="1.0"
     inkscape:pageopacity="0.0"
     inkscape:pageshadow="2"
     inkscape:zoom="1.979899"
     inkscape:cx="-205.55431"
     inkscape:cy="-162.9648"
     inkscape:document-units="mm"
     inkscape:current-layer="text817"
     showgrid="false"
     inkscape:window-width="1920"
     inkscape:window-height="1017"
     inkscape:window-x="-8"
     inkscape:window-y="-8"
     inkscape:window-maximized="1"
     fit-margin-top="0"
     fit-margin-left="0"
     fit-margin-right="0"
     fit-margin-bottom="0" />
  <metadata
     id="metadata5">
    <rdf:RDF>
      <cc:Work
         rdf:about="">
        <dc:format>image/svg+xml</dc:format>
        <dc:type
           rdf:resource="http://purl.org/dc/dcmitype/StillImage" />
        <dc:title></dc:title>
      </cc:Work>
    </rdf:RDF>
  </metadata>
  <g
     inkscape:label="圖層 1"
     inkscape:groupmode="layer"
     id="layer1"
     transform="translate(-4.746541,-2.4692258)">
    <g
       aria-label="OM   "
       style="font-style:normal;font-weight:normal;font-size:10.58333302px;line-height:1.25;font-family:sans-serif;letter-spacing:0px;word-spacing:0px;fill:#000000;fill-opacity:1;stroke:none;stroke-width:0.26458332"
       id="text817"
       transform="translate(2.6726953,0.26726953)">
      <path
         d="m 5.8410575,2.2019563 q 1.4986164,0 2.5683186,1.0903727 1.0748697,1.0903727 1.0748697,2.6096598 0,1.5451253 -1.0800374,2.6251627 -1.0800374,1.0800374 -2.6251627,1.0800374 -1.53479,0 -2.619995,-1.0852051 -1.085205,-1.085205 -1.085205,-2.619995 0,-1.550293 1.0903726,-2.6251627 1.0955404,-1.0748698 2.6768392,-1.0748698 z m -0.062012,2.0773925 q -0.6459553,0 -1.1007079,0.4754232 -0.4547526,0.4754232 -0.4547526,1.1472168 0,0.6717936 0.4547526,1.1472167 0.4599202,0.4754232 1.1007079,0.4754232 0.6511231,0 1.100708,-0.4702555 Q 7.3345063,6.57895 7.3345063,5.9019888 7.3345063,5.2250275 6.8797537,4.754772 6.4301688,4.2793488 5.7790455,4.2793488 Z"
         style="font-style:normal;font-variant:normal;font-weight:normal;font-stretch:normal;font-family:'Bauhaus 93';-inkscape-font-specification:'Bauhaus 93, ';fill:#f9f9f9;stroke-width:0.26458332"
         id="path851"
         inkscape:connector-curvature="0" />
      <path
         d="M 9.6635652,9.431489 V 4.3465282 q 0,-0.9456787 0.5736088,-1.5451253 0.573608,-0.5994466 1.488281,-0.5994466 1.085205,0 1.669149,0.9973551 0.356567,-0.5374348 0.764811,-0.7648111 0.408243,-0.232544 1.00769,-0.232544 0.950846,0 1.457275,0.5994466 0.506429,0.5994466 0.506429,1.7259928 V 9.431489 H 15.032746 V 4.8426219 q 0,-0.3410644 -0.05684,-0.4495849 -0.05168,-0.1136882 -0.217041,-0.1136882 -0.310058,0 -0.310058,0.5270996 V 9.431489 H 12.35074 V 4.8426219 q 0,-0.3358968 -0.05684,-0.4495849 -0.05685,-0.1136882 -0.222209,-0.1136882 -0.310059,0 -0.310059,0.5632731 V 9.431489 Z"
         style="font-style:normal;font-variant:normal;font-weight:normal;font-stretch:normal;font-family:'Bauhaus 93';-inkscape-font-specification:'Bauhaus 93, ';fill:#f9f9f9;stroke-width:0.26458332"
         id="path853"
         inkscape:connector-curvature="0" />
    </g>
    <g
       transform="translate(4.6297748,18.346876)"
       aria-label="OM   "
       style="font-style:normal;font-weight:normal;font-size:10.58333302px;line-height:1.25;font-family:sans-serif;letter-spacing:0px;word-spacing:0px;fill:#000000;fill-opacity:1;stroke:none;stroke-width:0.26458332"
       id="text817-0" />
  </g>
</svg>
