<?xml version="1.0" encoding="UTF-8" standalone="no"?>
<!-- Created with Inkscape (http://www.inkscape.org/) -->

<svg
   xmlns:dc="http://purl.org/dc/elements/1.1/"
   xmlns:cc="http://creativecommons.org/ns#"
   xmlns:rdf="http://www.w3.org/1999/02/22-rdf-syntax-ns#"
   xmlns:svg="http://www.w3.org/2000/svg"
   xmlns="http://www.w3.org/2000/svg"
   xmlns:sodipodi="http://sodipodi.sourceforge.net/DTD/sodipodi-0.dtd"
   xmlns:inkscape="http://www.inkscape.org/namespaces/inkscape"
   width="42.08091mm"
   height="7.5777788mm"
   viewBox="0 0 42.08091 7.5777788"
   version="1.1"
   id="svg8"
   inkscape:version="0.92.5 (2060ec1f9f, 2020-04-08)"
   sodipodi:docname="omflow.svg">
  <defs
     id="defs2" />
  <sodipodi:namedview
     id="base"
     pagecolor="#ffffff"
     bordercolor="#666666"
     borderopacity="1.0"
     inkscape:pageopacity="0.0"
     inkscape:pageshadow="2"
     inkscape:zoom="1.979899"
     inkscape:cx="-106.30682"
     inkscape:cy="-22.620708"
     inkscape:document-units="mm"
     inkscape:current-layer="layer1"
     showgrid="false"
     inkscape:window-width="1920"
     inkscape:window-height="1017"
     inkscape:window-x="-8"
     inkscape:window-y="-8"
     inkscape:window-maximized="1"
     fit-margin-top="0"
     fit-margin-left="0"
     fit-margin-right="0"
     fit-margin-bottom="0" />
  <metadata
     id="metadata5">
    <rdf:RDF>
      <cc:Work
         rdf:about="">
        <dc:format>image/svg+xml</dc:format>
        <dc:type
           rdf:resource="http://purl.org/dc/dcmitype/StillImage" />
        <dc:title></dc:title>
      </cc:Work>
    </rdf:RDF>
  </metadata>
  <g
     inkscape:label="圖層 1"
     inkscape:groupmode="layer"
     id="layer1"
     transform="translate(-0.202959,-0.3310696)">
    <g
       aria-label="OM   "
       style="font-style:normal;font-weight:normal;font-size:10.58333302px;line-height:1.25;font-family:sans-serif;letter-spacing:0px;word-spacing:0px;fill:#f9f9f9;fill-opacity:1;stroke:none;stroke-width:0.26458332"
       id="text817"
       transform="translate(-1.8708867,-1.8708867)">
      <path
         d="m 5.8410575,2.2019563 q 1.4986164,0 2.5683186,1.0903727 1.0748697,1.0903727 1.0748697,2.6096598 0,1.5451253 -1.0800374,2.6251627 -1.0800374,1.0800374 -2.6251627,1.0800374 -1.53479,0 -2.619995,-1.0852051 -1.085205,-1.085205 -1.085205,-2.619995 0,-1.550293 1.0903726,-2.6251627 1.0955404,-1.0748698 2.6768392,-1.0748698 z m -0.062012,2.0773925 q -0.6459553,0 -1.1007079,0.4754232 -0.4547526,0.4754232 -0.4547526,1.1472168 0,0.6717936 0.4547526,1.1472167 0.4599202,0.4754232 1.1007079,0.4754232 0.6511231,0 1.100708,-0.4702555 Q 7.3345063,6.57895 7.3345063,5.9019888 7.3345063,5.2250275 6.8797537,4.754772 6.4301688,4.2793488 5.7790455,4.2793488 Z"
         style="font-style:normal;font-variant:normal;font-weight:normal;font-stretch:normal;font-family:'Bauhaus 93';-inkscape-font-specification:'Bauhaus 93, ';fill:#f9f9f9;stroke-width:0.26458332"
         id="path851"
         inkscape:connector-curvature="0" />
      <path
         d="M 10.331739,9.431489 V 4.3465282 q 0,-0.9456787 0.573609,-1.5451253 0.573608,-0.5994466 1.488281,-0.5994466 1.085205,0 1.669149,0.9973551 0.356567,-0.5374348 0.764811,-0.7648111 0.408243,-0.232544 1.00769,-0.232544 0.950846,0 1.457275,0.5994466 0.506429,0.5994466 0.506429,1.7259928 V 9.431489 H 15.70092 V 4.8426219 q 0,-0.3410644 -0.05684,-0.4495849 -0.05168,-0.1136882 -0.217041,-0.1136882 -0.310058,0 -0.310058,0.5270996 V 9.431489 H 13.018914 V 4.8426219 q 0,-0.3358968 -0.05684,-0.4495849 -0.05685,-0.1136882 -0.222209,-0.1136882 -0.310059,0 -0.310059,0.5632731 V 9.431489 Z"
         style="font-style:normal;font-variant:normal;font-weight:normal;font-stretch:normal;font-family:'Bauhaus 93';-inkscape-font-specification:'Bauhaus 93, ';fill:#f9f9f9;stroke-width:0.26458332"
         id="path853"
         inkscape:connector-curvature="0" />
    </g>
    <g
       aria-label="F"
       style="font-style:normal;font-variant:normal;font-weight:normal;font-stretch:normal;font-size:10.58333302px;line-height:1.25;font-family:'Eras Bold ITC';-inkscape-font-specification:'Eras Bold ITC';letter-spacing:0px;word-spacing:0px;fill:#f9f9f9;fill-opacity:1;stroke:none;stroke-width:0.26458332"
       id="text821"
       transform="translate(-1.8708867,-1.8708867)">
      <path
         d="m 18.711763,9.4179888 q 0.10852,-1.0490316 0.149861,-1.6846517 0.06201,-0.940511 0.118856,-2.5838215 0.05684,-1.6484781 0.05684,-2.2169189 V 2.364156 q 1.555461,0.010335 2.89388,0.010335 1.348755,0 2.594157,-0.010335 -0.08268,1.1885579 -0.08268,1.5554605 l -0.449585,-0.015503 -0.361735,-0.00517 -0.361735,-0.00517 h -1.018026 q -0.1757,0 -1.028361,0.010335 l -0.04651,1.2040609 0.749309,0.015503 h 0.837158 q 0.361735,0 1.105876,-0.015503 -0.05685,0.9766845 -0.05685,1.5296223 -0.83199,-0.025838 -1.235066,-0.025838 -0.682129,0 -1.488281,0.025838 l -0.05168,1.8603515 -0.0052,0.6924642 v 0.2273763 l -1.111043,-0.010335 q -0.129191,0 -1.209228,0.010335 z"
         style="font-style:normal;font-variant:normal;font-weight:normal;font-stretch:normal;font-family:'Eras Bold ITC';-inkscape-font-specification:'Eras Bold ITC';fill:#f9f9f9;stroke-width:0.26458332"
         id="path877"
         inkscape:connector-curvature="0" />
    </g>
    <g
       aria-label="LOW"
       style="font-style:normal;font-weight:normal;font-size:10.58333302px;line-height:1.25;font-family:sans-serif;letter-spacing:0px;word-spacing:0px;fill:#f9f9f9;fill-opacity:1;stroke:none;stroke-width:0.26458332"
       id="text817-3"
       transform="translate(-1.8708867,-1.8708867)">
      <path
         d="m 25.15333,2.5502026 h 2.098064 v 4.1909585 q 0,0.4909261 0.155029,0.6562907 0.160197,0.1601969 0.625285,0.1601969 h 0.10852 v 2.0463867 h -0.558105 q -1.147217,0 -1.788005,-0.666626 Q 25.15333,8.2656158 25.15333,7.0770579 Z"
         style="font-style:normal;font-variant:normal;font-weight:normal;font-stretch:normal;font-family:'Bauhaus 93';-inkscape-font-specification:'Bauhaus 93, ';fill:#f9f9f9;stroke-width:0.26458332"
         id="path880"
         inkscape:connector-curvature="0" />
      <path
         d="m 32.196828,2.3745027 q 1.498616,0 2.568319,1.0903727 1.074869,1.0903727 1.074869,2.6096598 0,1.5451252 -1.080037,2.6251626 -1.080038,1.0800374 -2.625163,1.0800374 -1.53479,0 -2.619995,-1.085205 -1.085205,-1.085205 -1.085205,-2.619995 0,-1.550293 1.090373,-2.6251627 1.09554,-1.0748698 2.676839,-1.0748698 z m -0.06201,2.0773925 q -0.645955,0 -1.100708,0.4754232 -0.454752,0.4754232 -0.454752,1.1472168 0,0.6717936 0.454752,1.1472167 0.45992,0.4754232 1.100708,0.4754232 0.651123,0 1.100708,-0.4702555 0.454753,-0.4754232 0.454753,-1.1523844 0,-0.6769613 -0.454753,-1.1472168 -0.449585,-0.4754232 -1.100708,-0.4754232 z"
         style="font-style:normal;font-variant:normal;font-weight:normal;font-stretch:normal;font-family:'Bauhaus 93';-inkscape-font-specification:'Bauhaus 93, ';fill:#f9f9f9;stroke-width:0.26458332"
         id="path882"
         inkscape:connector-curvature="0" />
      <path
         d="m 44.154754,2.5502026 v 5.0797931 q 0,0.9508463 -0.573608,1.5502929 -0.573608,0.5994466 -1.483114,0.5994466 -1.09554,0 -1.674316,-0.9973551 -0.356567,0.5374349 -0.764811,0.7699788 -0.408244,0.2273763 -1.00769,0.2273763 -0.950847,0 -1.457276,-0.5994466 Q 36.68751,8.580842 36.68751,7.4542959 V 2.5502026 h 2.098063 v 4.588867 q 0,0.3410645 0.05168,0.449585 0.05684,0.1085205 0.222208,0.1085205 0.310059,0 0.310059,-0.521932 V 2.5502026 h 2.098063 v 4.588867 q 0,0.3307292 0.05684,0.4444173 0.05684,0.1136882 0.222209,0.1136882 0.310058,0 0.310058,-0.5581055 v -4.588867 z"
         style="font-style:normal;font-variant:normal;font-weight:normal;font-stretch:normal;font-family:'Bauhaus 93';-inkscape-font-specification:'Bauhaus 93, ';fill:#f9f9f9;stroke-width:0.26458332"
         id="path884"
         inkscape:connector-curvature="0" />
    </g>
    <g
       transform="translate(4.6297748,18.346876)"
       aria-label="OM   "
       style="font-style:normal;font-weight:normal;font-size:10.58333302px;line-height:1.25;font-family:sans-serif;letter-spacing:0px;word-spacing:0px;fill:#000000;fill-opacity:1;stroke:none;stroke-width:0.26458332"
       id="text817-0" />
  </g>
</svg>
